<svg version="1.1" xmlns="http://www.w3.org/2000/svg" xmlns:xlink="http://www.w3.org/1999/xlink" width="190.37483" height="139.04667" viewBox="0,0,190.37483,139.04667">
	<defs>
		<linearGradient x1="199.01211" y1="211.09757" x2="199.01211" y2="274.11996" gradientUnits="userSpaceOnUse" id="color-1">
			<stop offset="0" stop-color="#ffd566"/>
			<stop offset="1" stop-color="#71ff66"/>
		</linearGradient>
		<linearGradient x1="137.17594" y1="140.15156" x2="137.17594" y2="270.67847" gradientUnits="userSpaceOnUse" id="color-2">
			<stop offset="0" stop-color="#ffd566"/>
			<stop offset="1" stop-color="#71ff66"/>
		</linearGradient>
		<linearGradient x1="71.9859" y1="135.07329" x2="71.9859" y2="197.65166" gradientUnits="userSpaceOnUse" id="color-3">
			<stop offset="0" stop-color="#ffd566"/>
			<stop offset="1" stop-color="#71ff66"/>
		</linearGradient>
	</defs>
	<g transform="translate(-40.42357,-135.07329)">
		<g data-paper-data="{&quot;isPaintingLayer&quot;:true}" fill-rule="nonzero" stroke="none" stroke-width="0" stroke-linecap="butt" stroke-linejoin="miter" stroke-miterlimit="10" stroke-dasharray="" stroke-dashoffset="0" style="mix-blend-mode: normal">
			<path d="M226.385,259.05857c-8.91855,14.84071 -28.40372,19.50664 -43.52136,10.42167c-15.11763,-9.08497 -20.14298,-28.48057 -11.22442,-43.32127c8.91855,-14.8407 28.40373,-19.50665 43.52137,-10.42167c15.11763,9.08497 20.14297,28.48057 11.22441,43.32127z" fill="url(#color-1)"/>
			<path d="M57.10297,193.82065l32.25256,-53.66909l127.89339,76.85782l-32.25256,53.66909z" fill="url(#color-2)"/>
			<path d="M99.16594,182.69638c-8.85572,14.73614 -28.20361,19.36922 -43.21473,10.34825c-15.01112,-9.02096 -20.00105,-28.27991 -11.14534,-43.01605c8.85572,-14.73614 28.20361,-19.36922 43.21473,-10.34825c15.01112,9.02096 20.00106,28.27991 11.14534,43.01605z" fill="url(#color-3)"/>
		</g>
	</g>
</svg>