<svg version="1.1" xmlns="http://www.w3.org/2000/svg" xmlns:xlink="http://www.w3.org/1999/xlink" width="190.37482" height="139.04666" viewBox="0,0,190.37482,139.04666">
	<defs>
		<linearGradient x1="396.71481" y1="132.524" x2="396.71481" y2="195.54638" gradientUnits="userSpaceOnUse" id="color-1">
			<stop offset="0" stop-color="#9966ff"/>
			<stop offset="1" stop-color="#66ebff"/>
		</linearGradient>
		<linearGradient x1="334.87864" y1="61.57798" x2="334.87864" y2="192.10489" gradientUnits="userSpaceOnUse" id="color-2">
			<stop offset="0" stop-color="#9966ff"/>
			<stop offset="1" stop-color="#66ebff"/>
		</linearGradient>
		<linearGradient x1="269.6886" y1="56.49972" x2="269.6886" y2="119.07808" gradientUnits="userSpaceOnUse" id="color-3">
			<stop offset="0" stop-color="#9966ff"/>
			<stop offset="1" stop-color="#66ebff"/>
		</linearGradient>
	</defs>
	<g transform="translate(-238.12627,-56.49972)">
		<g data-paper-data="{&quot;isPaintingLayer&quot;:true}" fill-rule="nonzero" stroke="none" stroke-width="0" stroke-linecap="butt" stroke-linejoin="miter" stroke-miterlimit="10" stroke-dasharray="" stroke-dashoffset="0" style="mix-blend-mode: normal">
			<path d="M424.0877,180.48499c-8.91856,14.84071 -28.40373,19.50664 -43.52136,10.42167c-15.11762,-9.08497 -20.14298,-28.48057 -11.22442,-43.32127c8.91856,-14.8407 28.40373,-19.50665 43.52137,-10.42167c15.11762,9.08497 20.14297,28.48057 11.22442,43.32127z" fill="url(#color-1)"/>
			<path d="M254.80567,115.24707l32.25256,-53.66909l127.89339,76.85782l-32.25256,53.66909z" fill="url(#color-2)"/>
			<path d="M296.86864,104.1228c-8.85572,14.73615 -28.20362,19.36922 -43.21473,10.34825c-15.01111,-9.02096 -20.00106,-28.2799 -11.14534,-43.01605c8.85572,-14.73614 28.20361,-19.36922 43.21473,-10.34825c15.01111,9.02097 20.00106,28.27991 11.14534,43.01605z" fill="url(#color-3)"/>
		</g>
	</g>
</svg>