<svg version="1.1" xmlns="http://www.w3.org/2000/svg" xmlns:xlink="http://www.w3.org/1999/xlink" width="190.37482" height="139.04666" viewBox="0,0,190.37482,139.04666">
	<defs>
		<linearGradient x1="187.00009" y1="102.98947" x2="187.00009" y2="166.01186" gradientUnits="userSpaceOnUse" id="color-1">
			<stop offset="0" stop-color="#9766ff"/>
			<stop offset="1" stop-color="#ff6e6e"/>
		</linearGradient>
		<linearGradient x1="125.16393" y1="32.04346" x2="125.16393" y2="162.57037" gradientUnits="userSpaceOnUse" id="color-2">
			<stop offset="0" stop-color="#9766ff"/>
			<stop offset="1" stop-color="#ff6e6e"/>
		</linearGradient>
		<linearGradient x1="59.97389" y1="26.96519" x2="59.97389" y2="89.54356" gradientUnits="userSpaceOnUse" id="color-3">
			<stop offset="0" stop-color="#9766ff"/>
			<stop offset="1" stop-color="#ff6e6e"/>
		</linearGradient>
	</defs>
	<g transform="translate(-28.41156,-26.9652)">
		<g data-paper-data="{&quot;isPaintingLayer&quot;:true}" fill-rule="nonzero" stroke="none" stroke-width="0" stroke-linecap="butt" stroke-linejoin="miter" stroke-miterlimit="10" stroke-dasharray="" stroke-dashoffset="0" style="mix-blend-mode: normal">
			<path d="M214.37298,150.95047c-8.91855,14.84071 -28.40372,19.50664 -43.52136,10.42167c-15.11763,-9.08497 -20.14298,-28.48057 -11.22442,-43.32127c8.91855,-14.8407 28.40373,-19.50665 43.52137,-10.42167c15.11763,9.08497 20.14297,28.48057 11.22441,43.32127z" fill="url(#color-1)"/><path d="M45.09095,85.71255l32.25256,-53.66909l127.89339,76.85782l-32.25256,53.66909z" fill="url(#color-2)"/>
			<path d="M87.15392,74.58828c-8.85572,14.73614 -28.20361,19.36922 -43.21473,10.34825c-15.01112,-9.02096 -20.00105,-28.27991 -11.14534,-43.01605c8.85572,-14.73614 28.20361,-19.36922 43.21473,-10.34825c15.01112,9.02096 20.00106,28.27991 11.14534,43.01605z" fill="url(#color-3)"/>
		</g>
	</g>
</svg>