<svg width="400" height="400" xmlns="http://www.w3.org/2000/svg">
	<!-- by flamebousteur web-site https://flamebousteur.github.io -->
	<defs>
		<linearGradient y2="0.38359" x2="1" y1="0" x1="0" id="svg_34">
			<stop offset="0.07422" stop-opacity="0.99609" stop-color="#9acd32"></stop>
			<stop offset="0.57031" stop-color="#126dff"></stop>
			<stop offset="1" stop-opacity="0.99609" stop-color="#ed9200"></stop>
			<stop offset="NaN" stop-opacity="0.99609" stop-color="#ed9200"></stop>
		</linearGradient>
		<linearGradient y2="0" x2="0.23438" y1="1" x1="0.66016" id="svg_36">
			<stop offset="0" stop-opacity="0.99609" stop-color="#9acd32"></stop>
			<stop offset="0.29688" stop-opacity="0.99609" stop-color="#126dff"></stop>
			<stop offset="0.60156" stop-opacity="0.99219" stop-color="#126dff"></stop>
			<stop offset="1" stop-opacity="0.99609" stop-color="#ed9200"></stop>
			<stop offset="NaN" stop-opacity="0.99609" stop-color="#ed9200"></stop>
			<stop offset="NaN" stop-opacity="0.99609" stop-color="#ed9200"></stop>
			<stop offset="NaN" stop-opacity="0.99609" stop-color="#ed9200"></stop>
		</linearGradient>
		<linearGradient y2="0" x2="1" y1="0" x1="0" id="svg_37">
			<stop offset="0" stop-opacity="0.99609" stop-color="#9acd32"></stop>
			<stop offset="0.24219" stop-opacity="0.99219" stop-color="#126dff"></stop>
			<stop offset="1" stop-opacity="0.99609" stop-color="#ed9200"></stop>
			<stop offset="NaN" stop-opacity="0.99219" stop-color="#ed9200"></stop>
		</linearGradient>
		<linearGradient y2="1" x2="0" y1="0" x1="0" id="svg_31">
			<stop offset="0" stop-opacity="0.99609" stop-color="#9acd32"></stop>
			<stop offset="0.48438" stop-opacity="0.99219" stop-color="#126dff"></stop>
			<stop offset="1" stop-opacity="0.99609" stop-color="#ed9200"></stop>
		</linearGradient>
		<linearGradient y2="1" x2="1" y1="0.66094" x1="0" id="svg_39">
			<stop offset="0" stop-opacity="0.99609" stop-color="#9acd32"></stop>
			<stop offset="0.40234" stop-opacity="0.99609" stop-color="#126dff"></stop>
			<stop offset="1" stop-opacity="0.99609" stop-color="#ed9200"></stop>
			<stop offset="NaN" stop-opacity="0.99609" stop-color="#ed9200"></stop>
		</linearGradient>
		<linearGradient y2="0" x2="0" y1="0.44219" x1="1" id="svg_40">
			<stop offset="0" stop-opacity="0.99609" stop-color="#9acd32"></stop>
			<stop offset="0.44922" stop-opacity="0.99219" stop-color="#126dff"></stop>
			<stop offset="1" stop-opacity="0.99609" stop-color="#ed9200"></stop>
			<stop offset="NaN" stop-opacity="0.99609" stop-color="#ed9200"></stop>
		</linearGradient>
		<linearGradient y2="0" x2="1" y1="0" x1="0" id="svg_41">
			<stop offset="0" stop-opacity="0.99219" stop-color="#126dff"></stop>
			<stop offset="0.18359" stop-opacity="0.99219" stop-color="#9acd32"></stop>
			<stop offset="0.26953" stop-opacity="0.99219" stop-color="#9acd32"></stop>
			<stop offset="0.43359" stop-opacity="0.98438" stop-color="#9acd32"></stop>
			<stop offset="0.625" stop-opacity="0.98828" stop-color="#126dff"></stop>
			<stop offset="1" stop-opacity="0.99609" stop-color="#ed9200"></stop>
		</linearGradient>
		<linearGradient y2="0" x2="0.67578" y1="1" x1="0.26172" id="svg_44">
			<stop offset="0" stop-opacity="0.99609" stop-color="#9acd32"></stop>
			<stop offset="0.44141" stop-opacity="0.99219" stop-color="#126dff"></stop>
			<stop offset="1" stop-opacity="0.99609" stop-color="#ed9200"></stop>
			<stop offset="NaN" stop-opacity="0.99609" stop-color="#ed9200"></stop>
			<stop offset="NaN" stop-opacity="0.99609" stop-color="#ed9200"></stop>
		</linearGradient>
		<linearGradient y2="1" x2="0" y1="0" x1="0.57422" id="svg_46">
			<stop offset="0" stop-opacity="0.99609" stop-color="#9acd32"></stop>
			<stop offset="0.42969" stop-opacity="0.99609" stop-color="#126dff"></stop>
			<stop offset="1" stop-opacity="0.99609" stop-color="#ed9200"></stop>
			<stop offset="NaN" stop-opacity="0.99609" stop-color="#ed9200"></stop>
		</linearGradient>
		<linearGradient y2="0" x2="0" y1="0" x1="1" id="svg_48">
			<stop offset="0" stop-opacity="0.99609" stop-color="#9acd32"></stop>
			<stop offset="0.46875" stop-opacity="0.99219" stop-color="#126dff"></stop>
			<stop offset="1" stop-opacity="0.99609" stop-color="#ed9200"></stop>
			<stop offset="NaN" stop-opacity="0.99609" stop-color="#ed9200"></stop>
		</linearGradient>
		<linearGradient y2="1" x2="1" y1="0.325" x1="0" id="svg_49">
			<stop offset="0" stop-opacity="0.99609" stop-color="#9acd32"></stop>
			<stop offset="0.46875" stop-opacity="0.99219" stop-color="#126dff"></stop>
			<stop offset="1" stop-opacity="0.99609" stop-color="#ed9200"></stop>
			<stop offset="NaN" stop-opacity="0.99609" stop-color="#ed9200"></stop>
		</linearGradient>
		<linearGradient y2="0" x2="1" y1="0" x1="0" id="svg_33">
			<stop offset="0.05469" stop-opacity="0.99609" stop-color="#9acd32"></stop>
			<stop offset="0.28906" stop-opacity="0.99219" stop-color="#126dff"></stop>
			<stop offset="1" stop-opacity="0.99609" stop-color="#ed9200"></stop>
			<stop offset="NaN" stop-opacity="0.99219" stop-color="#ed9200"></stop>
		</linearGradient>
	</defs>
	<g>
		<g id="svg_1" stroke-miterlimit="10" stroke-dashoffset="0">
			<g id="lines">
				<g id="line1">
					<path stroke="#ffffff" id="svg_2" d="m79.39481,347.5788l0,-278.2593l3.50877,0l0,278.25931l-3.50877,-0.00001z" fill="url(#svg_31)" stroke-width="0"></path>
					<path stroke="#ffffff" id="svg_3" d="m98.44243,346.57884l0,-297.1714l3.50877,0l0,297.17141l-3.50877,-0.00001z" fill="url(#svg_31)" stroke-width="0"></path>
					<path stroke="#ffffff" id="svg_4" d="m119.49506,346.57888l0,-318.11538l3.50877,0l0,318.11539l-3.50877,-0.00001z" fill="url(#svg_31)" stroke-width="0"></path>
				</g>
				<g id="line2">
					<path stroke="#ffffff" id="svg_5" d="m119.62412,42.02599l0,-3.375l230.57644,0l0,3.375l-230.57644,0z" fill="url(#svg_37)" stroke-width="0"></path>
					<path stroke="#ffffff" id="svg_6" d="m99.07274,63.02599l0,-3.375l248.62155,0l0,3.375l-248.62155,0z" fill="url(#svg_37)" stroke-width="0"></path>
					<path stroke="#ffffff" id="svg_7" d="m56.40777,83.10697l0,-3.375l292.7902,0l0,3.375l-292.7902,0z" fill="url(#svg_33)" stroke-width="0"></path>
				</g>
				<g id="line3">
					<path stroke="#ffffff" id="svg_8" d="m119.50255,182.46349l0,-3.5l105.76441,0l0,3.5l-105.76441,0z" fill="url(#svg_41)" stroke-width="0"></path>
					<path stroke="#ffffff" id="svg_9" d="m98.94368,203.46349l0,-3.5l125.81454,0l0,3.5l-125.81454,0z" fill="url(#svg_41)" stroke-width="0"></path>
					<path stroke="#ffffff" id="svg_10" d="m79.40229,224.71349l0,-3.5l146.61654,0l0,3.5l-146.61654,0z" fill="url(#svg_41)" stroke-width="0"></path>
				</g>
			</g>
			<g id="3">
				<g stroke-width="0" stroke="#ffffff" fill="#ffffff" id="ball1">
					<path id="svg_11" d="m253.86781,203.78137c0,4.18331 -3.2844,7.57456 -7.33591,7.57456c-4.05151,0 -7.33591,-3.39125 -7.33591,-7.57456c0,-4.18331 3.2844,-7.57455 7.33591,-7.57455c4.05151,0 7.33591,3.39124 7.33591,7.57455z" fill="none" stroke="url(#svg_39)" stroke-width="3"></path>
					<path id="svg_12" d="m254.03489,224.61471c0,4.18331 -3.2844,7.57456 -7.33591,7.57456c-4.05151,0 -7.33591,-3.39125 -7.33591,-7.57456c0,-4.18331 3.2844,-7.57455 7.33591,-7.57455c4.05151,0 7.33591,3.39124 7.33591,7.57455z" fill="none" stroke="url(#svg_39)" stroke-width="3"></path>
					<path id="svg_13" d="m253.86781,245.6601c0,4.18331 -3.2844,7.57456 -7.33591,7.57456c-4.05151,0 -7.33591,-3.39125 -7.33591,-7.57456c0,-4.18331 3.2844,-7.57455 7.33591,-7.57455c4.05151,0 7.33591,3.39124 7.33591,7.57455z" fill="none" stroke="url(#svg_39)" stroke-width="3"></path>
				</g>
				<g id="sline1">
					<path stroke="#ffffff" id="svg_14" d="m240.46624,243.2584l-18.05998,-19.22179l3.14612,-2.94119l18.05998,19.22179l-3.14612,2.94119z" fill="url(#svg_40)" stroke-width="0"></path>
					<path stroke="#ffffff" id="svg_15" d="m239.32864,221.7024l-16.97385,-19.03444l3.11546,-2.76431l16.97385,19.03444l-3.11546,2.76431z" fill="url(#svg_40)" stroke-width="0"></path>
					<path stroke="#ffffff" id="svg_16" d="m240.18447,200.91685l-17.46427,-18.58776l3.04234,-2.84418l17.46428,18.58776l-3.04235,2.84418z" fill="url(#svg_40)" stroke-width="0"></path>
				</g>
			</g>
			<g id="3">
				<g id="ball2">
					<path id="svg_17" d="m59.15071,361.78559c4.19378,0.00936 7.58618,3.29312 7.57711,7.33449c-0.00905,4.04137 -3.41614,7.30997 -7.60992,7.30061c-4.19378,-0.00936 -7.58617,-3.29312 -7.57711,-7.33449c0.00905,-4.04137 3.41614,-7.30997 7.60992,-7.30061z" fill="none" stroke="url(#svg_46)" stroke-width="3"></path>
					<path id="svg_18" d="m80.03658,361.66551c4.19378,0.00936 7.58618,3.29312 7.57712,7.33449c-0.00906,4.04137 -3.41614,7.30997 -7.60992,7.30062c-4.19378,-0.00936 -7.58617,-3.29312 -7.57711,-7.33449c0.00905,-4.04137 3.41613,-7.30997 7.60991,-7.30061l0,-0.00001z" fill="none" stroke="url(#svg_46)" stroke-width="3"></path>
					<path id="svg_19" d="m100.75462,361.87839c4.19378,0.00936 7.58618,3.29312 7.57711,7.33449c-0.00906,4.04137 -3.41614,7.30997 -7.60992,7.30061c-4.19378,-0.00936 -7.58618,-3.29312 -7.57711,-7.33449c0.00906,-4.04137 3.41614,-7.30997 7.60992,-7.30061z" fill="none" stroke="url(#svg_46)" stroke-width="3"></path>
				</g>
				<g id="sline2">
					<path stroke="#ffffff" id="svg_20" d="m61.05141,362.74747l18.5984,-18.70396l3.06136,3.02888l-18.5984,18.70396l-3.06136,-3.02888z" fill="url(#svg_44)" stroke-width="0"></path>
					<path stroke="#ffffff" id="svg_21" d="m81.13686,362.01764l18.45033,-17.61444l2.88304,3.00477l-18.45033,17.61444l-2.88304,-3.00477z" fill="url(#svg_44)" stroke-width="0"></path>
					<path stroke="#ffffff" id="svg_22" d="m101.99186,362.11261l17.98493,-18.08702l2.96038,2.92898l-17.98494,18.08702l-2.96037,-2.92898z" fill="url(#svg_44)" stroke-width="0"></path>
				</g>
			</g>
			<g id="3">
				<g stroke-width="3" stroke="url(#svg_34)" fill="none" id="ball3">
					<path id="svg_23" d="m377.02993,62.40548c0,4.18331 -3.2844,7.57456 -7.33591,7.57456c-4.05151,0 -7.33591,-3.39125 -7.33591,-7.57456c0,-4.18331 3.2844,-7.57455 7.33591,-7.57455c4.05151,0 7.33591,3.39124 7.33591,7.57455z" fill="none" stroke="url(#svg_34)" stroke-width="3"></path>
					<path id="svg_24" d="m376.9058,84.1103c0,4.18331 -3.2844,7.57456 -7.33591,7.57456c-4.05151,0 -7.33591,-3.39125 -7.33591,-7.57456c0,-4.18331 3.2844,-7.57455 7.33591,-7.57455c4.05151,0 7.33591,3.39124 7.33591,7.57455z" fill="none" stroke="url(#svg_34)" stroke-width="3"></path>
					<path id="svg_25" d="m376.56182,103.99372c0,4.18331 -3.2844,7.57456 -7.33591,7.57456c-4.05151,0 -7.33591,-3.39125 -7.33591,-7.57456c0,-4.18331 3.2844,-7.57455 7.33591,-7.57455c4.05151,0 7.33591,3.39124 7.33591,7.57455z" fill="none" stroke="url(#svg_34)" stroke-width="3"></path>
				</g>
				<g stroke-width="3" stroke="url(#svg_34)" fill="none" id="sline3">
						<path stroke="#ffffff" id="svg_26" d="m363.57302,101.59202l-18.05998,-19.22179l3.14612,-2.94119l18.05998,19.22179l-3.14612,2.94119z" fill="url(#svg_36)" stroke-width="0"></path>
						<path stroke="#ffffff" id="svg_27" d="m362.43543,81.48848l-16.97385,-19.03444l3.11546,-2.76431l16.97385,19.03444l-3.11546,2.76431z" fill="url(#svg_36)" stroke-width="0"></path>
						<path stroke="#ffffff" id="svg_28" d="m364.16492,59.83145l-17.46427,-18.58776l3.04234,-2.84418l17.46428,18.58776l-3.04235,2.84418z" fill="url(#svg_36)" stroke-width="0"></path>
				</g>
			</g>
			<g id="4">
				<path d="m36.9089,63.55986l2.39247,-2.38649l19.4028,19.3543l-2.39247,2.38649l-19.4028,-19.3543z" fill="url(#svg_48)" stroke-width="3" id="svg_43"></path>
				<path id="svg_29" d="m41.02566,58.04071c0,4.18331 -3.2844,7.57456 -7.33591,7.57456c-4.05151,0 -7.33591,-3.39125 -7.33591,-7.57456c0,-4.18331 3.2844,-7.57455 7.33591,-7.57455c4.05151,0 7.33591,3.39124 7.33591,7.57455z" fill="none" stroke="url(#svg_49)" stroke-width="3"></path>
			</g>
		</g>
	</g>
</svg>